#N canvas 308 161 504 486 12;
#X obj 49 15 hsl 162 19 60 600 0 0 empty empty empty -2 -10 0 12 #fcfcfc #000000 #000000 0 1;
#X obj 235 39 o2ensemble am-ens 3 0 0 -c 0 -d srSRd;
#X listbox 235 95 20 0 0 0 - - - 0;
#X obj 234 68 list;
#X obj 15 270 osc~;
#X obj 42 432 dac~;
#X obj 55 350 +~;
#X floatatom 15 139 5 0 0 0 - - - 0;
#X floatatom 31 218 5 0 0 0 - - - 0;
#X text 233 210 DSP on/off;
#X obj 207 210 tgl 19 0 empty empty empty 0 -10 0 12 #fcfcfc #000000 #000000 0 1;
#X msg 207 243 \; pd dsp \$1, f 11;
#X obj 31 311 *~;
#X obj 95 77 loadbang;
#X obj 54 269 /;
#X obj 54 392 *~ 0.1;
#X obj 40 180 t b f;
#X obj 95 270 osc~;
#X floatatom 95 139 5 0 0 0 - - - 0;
#X floatatom 111 218 5 0 0 0 - - - 0;
#X obj 111 311 *~;
#X obj 134 269 /;
#X obj 120 180 t b f;
#X obj 69 48 o2send am2 freq -t f;
#X obj 95 105 o2receive am1 -t f;
#X msg 235 13 status am2;
#X connect 0 0 7 0;
#X connect 0 0 23 0;
#X connect 1 0 3 0;
#X connect 3 0 2 0;
#X connect 4 0 12 0;
#X connect 6 0 15 0;
#X connect 7 0 4 0;
#X connect 7 0 16 0;
#X connect 8 0 14 0;
#X connect 10 0 11 0;
#X connect 12 0 6 0;
#X connect 13 0 24 0;
#X connect 14 0 12 1;
#X connect 15 0 5 0;
#X connect 15 0 5 1;
#X connect 16 0 8 0;
#X connect 16 1 14 1;
#X connect 17 0 20 0;
#X connect 18 0 17 0;
#X connect 18 0 22 0;
#X connect 19 0 21 0;
#X connect 20 0 6 1;
#X connect 21 0 20 1;
#X connect 22 0 19 0;
#X connect 22 1 21 1;
#X connect 24 0 18 0;
#X connect 25 0 1 0;
